HIERARCHY
ROOT Hips
{
	OFFSET 0.000000 0.000000 0.000000
	CHANNELS 6 Xposition Yposition Zposition Zrotation Yrotation Xrotation 
	JOINT LHipJoint
	{
		OFFSET 0.000000 0.000000 0.000000
		CHANNELS 3 Zrotation Yrotation Xrotation
		JOINT LeftUpLeg
		{
			OFFSET 1.363060 -1.794630 0.839290
			CHANNELS 3 Zrotation Yrotation Xrotation
			JOINT LeftLeg
			{
				OFFSET 2.448110 -6.726130 0.000000
				CHANNELS 3 Zrotation Yrotation Xrotation
				JOINT LeftFoot
				{
					OFFSET 2.562200 -7.039590 0.000000
					CHANNELS 3 Zrotation Yrotation Xrotation
					JOINT LeftToeBase
					{
						OFFSET 0.157640 -0.433110 2.322550
						CHANNELS 3 Zrotation Yrotation Xrotation
						End Site
						{
							OFFSET 0.000000 0.000000 0.000000
						}
					}
				}
			}
		}
	}
	JOINT RHipJoint
	{
		OFFSET 0.000000 0.000000 0.000000
		CHANNELS 3 Zrotation Yrotation Xrotation
		JOINT RightUpLeg
		{
			OFFSET -1.305520 -1.794630 0.839290
			CHANNELS 3 Zrotation Yrotation Xrotation
			JOINT RightLeg
			{
				OFFSET -2.542530 -6.985550 0.000000
				CHANNELS 3 Zrotation Yrotation Xrotation
				JOINT RightFoot
				{
					OFFSET -2.568260 -7.056230 0.000000
					CHANNELS 3 Zrotation Yrotation Xrotation
					JOINT RightToeBase
					{
						OFFSET -0.164730 -0.452590 2.363150
						CHANNELS 3 Zrotation Yrotation Xrotation
						End Site
						{
							OFFSET 0.000000 0.000000 0.000000
						}
					}
				}
			}
		}
	}
}
MOTION
Frames: 10
Frame Time: 0.008333
-2.253834 16.524769 -0.853606 -153.631964 71.935368 -149.588535 -10.902267 0.741474 0.409527 -22.547911 10.927015 -31.044980 -2.537104 -0.778125 13.349724 3.624927 15.057307 -19.713054 176.815800 -0.000000 -6.386800 9.243721 -2.724682 -4.167782 -1.720051 -23.502482 -7.204807 -0.309920 -2.709328 42.801419 -1.316968 -3.743448 23.058759 -1.394300 -0.000000 -87.615200
-2.061806 16.496659 -0.953581 -154.597705 71.171571 -150.603783 -10.878022 0.855562 0.398832 -22.654427 10.770826 -30.552820 -2.527224 -0.661727 14.454126 3.579110 14.957885 -19.621090 176.849500 0.000000 -8.231000 9.418276 -2.579175 -4.023539 -1.797114 -22.891558 -8.878789 -0.532068 -2.809853 46.381586 -1.577320 -4.687952 25.172324 -1.873000 -0.000000 -83.876400
-1.873130 16.470929 -1.051667 -155.786018 70.319489 -151.679499 -10.822588 0.970412 0.438672 -22.851394 10.378564 -30.229763 -2.526909 -0.555501 15.576173 3.539955 14.791893 -19.637819 176.865300 0.000000 -9.967900 9.579041 -2.428000 -3.834074 -1.709395 -22.061544 -10.782166 -0.704142 -2.907240 49.830143 -1.803248 -5.666805 26.648489 -2.404800 -0.000000 -79.668000
-1.688989 16.448325 -1.147900 -157.153632 69.369195 -152.780241 -10.743387 1.077321 0.530683 -23.104584 9.701950 -30.028367 -2.526872 -0.459424 16.702977 3.517426 14.616391 -19.775301 176.851200 -0.000000 -11.563300 9.721919 -2.274606 -3.612439 -1.485938 -21.031635 -12.875980 -0.845648 -3.011402 53.100461 -1.982837 -6.599292 27.417958 -2.917400 -0.000000 -75.421000
-1.510176 16.429508 -1.242390 -158.649609 68.316410 -153.870536 -10.648114 1.168465 0.672343 -23.381507 8.717603 -29.888097 -2.519078 -0.374659 17.801578 3.516852 14.478901 -20.011890 176.806000 0.000000 -12.896600 9.845227 -2.117821 -3.367870 -1.167636 -19.812778 -15.108017 -0.974127 -3.124412 56.136484 -2.114477 -7.434252 27.491634 -3.353200 -0.000000 -71.750000
-1.337445 16.415054 -1.335692 -160.196491 67.161760 -154.901264 -10.548621 1.235557 0.852824 -23.640612 7.448202 -29.744245 -2.498735 -0.302310 18.833729 3.537088 14.398127 -20.323950 176.732300 0.000000 -13.942000 9.944913 -1.955926 -3.109945 -0.792411 -18.413440 -17.410868 -1.101283 -3.244016 58.891202 -2.199161 -8.130769 26.893521 -3.665800 0.000000 -68.742600
-1.171145 16.405369 -1.428420 -161.725426 65.912905 -155.840765 -10.455644 1.272946 1.055824 -23.849028 5.952727 -29.528779 -2.464635 -0.244223 19.750249 3.571562 14.370609 -20.674364 176.639500 -0.000000 -14.665400 10.018333 -1.787389 -2.846090 -0.404538 -16.843907 -19.708109 -1.231181 -3.365002 61.317069 -2.240882 -8.673912 25.674233 -3.833600 0.000001 -66.392000
-1.011225 16.400786 -1.521361 -163.177449 64.581727 -156.669281 -10.377999 1.278551 1.263624 -23.986419 4.313882 -29.181448 -2.418650 -0.202796 20.498392 3.610698 14.377032 -21.022519 176.540401 0.000000 -15.047000 10.063397 -1.612806 -2.580656 -0.045067 -15.120108 -21.929075 -1.360736 -3.481263 63.373303 -2.244837 -9.067896 23.900521 -3.856500 0.000000 -64.509900
-0.857594 16.401365 -1.615336 -164.501104 63.184278 -157.381677 -10.324378 1.252631 1.452415 -24.041065 2.643646 -28.647564 -2.365869 -0.179578 21.032578 3.641485 14.376879 -21.337854 176.449200 0.000000 -15.130200 10.077059 -1.434429 -2.317768 0.254635 -13.261075 -24.001139 -1.481352 -3.585975 65.018790 -2.219741 -9.345135 21.686983 -3.761000 -0.000000 -63.072000
-0.709074 16.407198 -1.711121 -165.677019 61.736099 -157.980653 -10.296728 1.201361 1.613141 -24.019381 1.024140 -27.906655 -2.311321 -0.176816 21.313826 3.655302 14.341571 -21.586987 176.380300 0.000001 -14.934900 10.059096 -1.256267 -2.053046 0.476189 -11.294632 -25.901221 -1.582103 -3.674019 66.239531 -2.174315 -9.535795 19.150268 -3.576100 0.000000 -61.678000
